<svg width="343" height="16" viewBox="0 0 343 16" fill="none" xmlns="http://www.w3.org/2000/svg">
<path d="M7.14 5.308C7.14 6.07333 6.93933 6.73133 6.538 7.282H6.552L3.388 12H1.918L4.242 8.57C3.962 8.58867 3.80333 8.598 3.766 8.598C2.77667 8.598 1.96467 8.29467 1.33 7.688C0.704667 7.072 0.392 6.27867 0.392 5.308C0.392 4.328 0.704667 3.53933 1.33 2.942C1.95533 2.326 2.76733 2.018 3.766 2.018C4.746 2.018 5.55333 2.326 6.188 2.942C6.82267 3.54867 7.14 4.33733 7.14 5.308ZM3.766 3.264C3.15 3.264 2.646 3.45067 2.254 3.824C1.87133 4.19733 1.68 4.692 1.68 5.308C1.68 5.924 1.87133 6.42333 2.254 6.806C2.646 7.17933 3.15 7.366 3.766 7.366C4.382 7.366 4.88133 7.17933 5.264 6.806C5.656 6.42333 5.852 5.924 5.852 5.308C5.852 4.692 5.66067 4.19733 5.278 3.824C4.89533 3.45067 4.39133 3.264 3.766 3.264ZM8.8072 6.652C8.5552 6.652 8.34054 6.56333 8.1632 6.386C7.98587 6.20867 7.8972 5.994 7.8972 5.742C7.8972 5.49 7.98587 5.27533 8.1632 5.098C8.34054 4.92067 8.5552 4.832 8.8072 4.832C9.06854 4.832 9.2832 4.92067 9.4512 5.098C9.62854 5.27533 9.7172 5.49 9.7172 5.742C9.7172 5.994 9.62854 6.20867 9.4512 6.386C9.2832 6.56333 9.06854 6.652 8.8072 6.652ZM8.8072 12.154C8.5552 12.154 8.34054 12.0653 8.1632 11.888C7.98587 11.7107 7.8972 11.496 7.8972 11.244C7.8972 10.992 7.98587 10.7773 8.1632 10.6C8.34054 10.4227 8.5552 10.334 8.8072 10.334C9.06854 10.334 9.2832 10.4227 9.4512 10.6C9.62854 10.7773 9.7172 10.992 9.7172 11.244C9.7172 11.496 9.62854 11.7107 9.4512 11.888C9.2832 12.0653 9.06854 12.154 8.8072 12.154ZM16.6495 3.348L14.5215 6.218C15.2868 6.358 15.9028 6.68467 16.3695 7.198C16.8362 7.71133 17.0695 8.346 17.0695 9.102C17.0695 10.0633 16.7428 10.8147 16.0895 11.356C15.4268 11.9067 14.6335 12.182 13.7095 12.182C12.9442 12.182 12.2768 12.0093 11.7075 11.664C11.1382 11.3187 10.7322 10.8287 10.4895 10.194L11.5815 9.55C11.8708 10.4553 12.5802 10.908 13.7095 10.908C14.3255 10.908 14.8202 10.7493 15.1935 10.432C15.5762 10.1053 15.7675 9.662 15.7675 9.102C15.7675 8.542 15.5762 8.09867 15.1935 7.772C14.8202 7.44533 14.3255 7.282 13.7095 7.282H13.3735L12.8555 6.484L15.1235 3.418H10.7695V2.2H16.6495V3.348ZM19.385 6.022H20.813C21.737 6.022 22.5163 6.29733 23.151 6.848C23.795 7.39867 24.117 8.15 24.117 9.102C24.117 10.0633 23.7903 10.8147 23.137 11.356C22.4743 11.9067 21.681 12.182 20.757 12.182C19.9916 12.182 19.315 12 18.727 11.636C18.1483 11.2627 17.747 10.7447 17.523 10.082L18.629 9.452C18.7596 9.91867 19.0116 10.278 19.385 10.53C19.7583 10.782 20.2156 10.908 20.757 10.908C21.3823 10.908 21.8816 10.7493 22.255 10.432C22.6376 10.1053 22.829 9.662 22.829 9.102C22.829 8.542 22.6376 8.09867 22.255 7.772C21.8816 7.44533 21.3916 7.282 20.785 7.282H18.013L18.377 2.2H23.739V3.418H19.553L19.385 6.022ZM28.3445 2.2H31.9005C32.7965 2.2 33.5479 2.50333 34.1545 3.11C34.7612 3.71667 35.0645 4.46333 35.0645 5.35C35.0645 6.23667 34.7612 6.98333 34.1545 7.59C33.5479 8.19667 32.7965 8.5 31.9005 8.5H29.6465V12H28.3445V2.2ZM29.6465 7.282H31.9005C32.4512 7.282 32.8992 7.1 33.2445 6.736C33.5992 6.35333 33.7765 5.89133 33.7765 5.35C33.7765 4.79 33.5992 4.328 33.2445 3.964C32.8899 3.6 32.4419 3.418 31.9005 3.418H29.6465V7.282ZM43.8823 2.2H45.3523V12H44.0643V4.342L40.8583 9.676H40.6903L37.4843 4.356V12H36.1823V2.2H37.6523L40.7743 7.38L43.8823 2.2ZM55.218 8.29H50.108V7.114H55.218V8.29ZM62.521 12.182C61.8024 12.182 61.1724 12.0327 60.631 11.734C60.099 11.426 59.707 10.992 59.455 10.432L60.561 9.788C60.8597 10.5347 61.513 10.908 62.521 10.908C63.1557 10.908 63.6457 10.7587 63.991 10.46C64.3457 10.152 64.523 9.70867 64.523 9.13V2.2H65.811V9.13C65.811 10.11 65.4984 10.866 64.873 11.398C64.2477 11.9207 63.4637 12.182 62.521 12.182ZM72.9613 6.204V5H74.1793V12H72.9613V10.796C72.364 11.72 71.482 12.182 70.3153 12.182C69.326 12.182 68.4907 11.8273 67.8093 11.118C67.1187 10.3993 66.7733 9.52667 66.7733 8.5C66.7733 7.48267 67.1187 6.61467 67.8093 5.896C68.5 5.17733 69.3353 4.818 70.3153 4.818C71.482 4.818 72.364 5.28 72.9613 6.204ZM70.4693 11.006C71.1787 11.006 71.7713 10.768 72.2473 10.292C72.7233 9.79733 72.9613 9.2 72.9613 8.5C72.9613 7.79067 72.7233 7.198 72.2473 6.722C71.7713 6.23667 71.1787 5.994 70.4693 5.994C69.7693 5.994 69.1813 6.23667 68.7053 6.722C68.2293 7.198 67.9913 7.79067 67.9913 8.5C67.9913 9.2 68.2293 9.79733 68.7053 10.292C69.1813 10.768 69.7693 11.006 70.4693 11.006ZM79.0907 4.818C79.912 4.818 80.57 5.07933 81.0647 5.602C81.5594 6.11533 81.8067 6.81533 81.8067 7.702V12H80.5887V7.772C80.5887 7.212 80.4347 6.77333 80.1267 6.456C79.8187 6.13867 79.394 5.98 78.8527 5.98C78.2274 5.98 77.7327 6.176 77.3687 6.568C77.0047 6.95067 76.8227 7.52467 76.8227 8.29V12H75.6047V5H76.8227V6.008C77.308 5.21467 78.064 4.818 79.0907 4.818ZM85.439 3.096L88.015 2.2H89.135V12H87.847V3.6L85.761 4.216L85.439 3.096ZM96.3653 3.348L94.2373 6.218C95.0026 6.358 95.6186 6.68467 96.0853 7.198C96.5519 7.71133 96.7853 8.346 96.7853 9.102C96.7853 10.0633 96.4586 10.8147 95.8053 11.356C95.1426 11.9067 94.3493 12.182 93.4253 12.182C92.6599 12.182 91.9926 12.0093 91.4233 11.664C90.8539 11.3187 90.4479 10.8287 90.2053 10.194L91.2973 9.55C91.5866 10.4553 92.2959 10.908 93.4253 10.908C94.0413 10.908 94.5359 10.7493 94.9093 10.432C95.2919 10.1053 95.4833 9.662 95.4833 9.102C95.4833 8.542 95.2919 8.09867 94.9093 7.772C94.5359 7.44533 94.0413 7.282 93.4253 7.282H93.0893L92.5713 6.484L94.8393 3.418H90.4853V2.2H96.3653V3.348ZM97.956 10.558H99.356L98.446 13.96H97.396L97.956 10.558ZM109.645 12H103.317V10.936L106.775 7.408C107.699 6.484 108.161 5.69067 108.161 5.028C108.161 4.48667 107.993 4.062 107.657 3.754C107.33 3.43667 106.92 3.278 106.425 3.278C105.501 3.278 104.829 3.71667 104.409 4.594L103.317 3.95C103.616 3.32467 104.036 2.84867 104.577 2.522C105.118 2.186 105.73 2.018 106.411 2.018C107.242 2.018 107.956 2.28867 108.553 2.83C109.16 3.38067 109.463 4.10867 109.463 5.014C109.463 6.00333 108.88 7.08133 107.713 8.248L105.207 10.74H109.645V12ZM116.835 10.796C116.182 11.72 115.253 12.182 114.049 12.182C112.845 12.182 111.916 11.72 111.263 10.796C110.6 9.86267 110.269 8.63067 110.269 7.1C110.269 5.56933 110.6 4.33733 111.263 3.404C111.916 2.48 112.845 2.018 114.049 2.018C115.253 2.018 116.182 2.48 116.835 3.404C117.498 4.33733 117.829 5.56933 117.829 7.1C117.829 8.63067 117.498 9.86267 116.835 10.796ZM111.571 7.1C111.571 8.31333 111.786 9.25133 112.215 9.914C112.644 10.5767 113.256 10.908 114.049 10.908C114.842 10.908 115.454 10.5767 115.883 9.914C116.322 9.25133 116.541 8.31333 116.541 7.1C116.541 5.88667 116.322 4.94867 115.883 4.286C115.454 3.614 114.842 3.278 114.049 3.278C113.256 3.278 112.644 3.60933 112.215 4.272C111.786 4.93467 111.571 5.87733 111.571 7.1ZM124.692 12H118.364V10.936L121.822 7.408C122.746 6.484 123.208 5.69067 123.208 5.028C123.208 4.48667 123.04 4.062 122.704 3.754C122.377 3.43667 121.966 3.278 121.472 3.278C120.548 3.278 119.876 3.71667 119.456 4.594L118.364 3.95C118.662 3.32467 119.082 2.84867 119.624 2.522C120.165 2.186 120.776 2.018 121.458 2.018C122.288 2.018 123.002 2.28867 123.6 2.83C124.206 3.38067 124.51 4.10867 124.51 5.014C124.51 6.00333 123.926 7.08133 122.76 8.248L120.254 10.74H124.692V12ZM131.655 12H125.327V10.936L128.785 7.408C129.709 6.484 130.171 5.69067 130.171 5.028C130.171 4.48667 130.003 4.062 129.667 3.754C129.34 3.43667 128.929 3.278 128.435 3.278C127.511 3.278 126.839 3.71667 126.419 4.594L125.327 3.95C125.625 3.32467 126.045 2.84867 126.587 2.522C127.128 2.186 127.739 2.018 128.421 2.018C129.251 2.018 129.965 2.28867 130.563 2.83C131.169 3.38067 131.473 4.10867 131.473 5.014C131.473 6.00333 130.889 7.08133 129.723 8.248L127.217 10.74H131.655V12Z" fill="#001731" fill-opacity="0.3"/>
<path d="M252.108 5.51641L248.164 4.93985L246.4 1.34454C246.352 1.2461 246.273 1.16641 246.175 1.11797C245.93 0.9961 245.631 1.09766 245.509 1.34454L243.745 4.93985L239.801 5.51641C239.692 5.53204 239.593 5.5836 239.516 5.66172C239.424 5.75686 239.374 5.88485 239.375 6.01757C239.377 6.15029 239.431 6.27689 239.526 6.36954L242.38 9.16797L241.705 13.1195C241.69 13.2115 241.7 13.306 241.735 13.3924C241.77 13.4789 241.828 13.5537 241.903 13.6086C241.978 13.6634 242.067 13.696 242.159 13.7026C242.252 13.7092 242.344 13.6897 242.426 13.6461L245.955 11.7805L249.483 13.6461C249.579 13.6977 249.691 13.7148 249.798 13.6961C250.069 13.6492 250.25 13.3914 250.204 13.1195L249.529 9.16797L252.383 6.36954C252.461 6.29297 252.512 6.19297 252.528 6.0836C252.57 5.81016 252.38 5.55704 252.108 5.51641Z" fill="#FADB14"/>
<path d="M274.381 5.51641L270.437 4.93985L268.673 1.34454C268.625 1.2461 268.546 1.16641 268.448 1.11797C268.203 0.9961 267.904 1.09766 267.782 1.34454L266.018 4.93985L262.074 5.51641C261.965 5.53204 261.865 5.5836 261.789 5.66172C261.697 5.75686 261.647 5.88485 261.648 6.01757C261.65 6.15029 261.704 6.27689 261.799 6.36954L264.653 9.16797L263.978 13.1195C263.963 13.2115 263.973 13.306 264.008 13.3924C264.042 13.4789 264.101 13.5537 264.176 13.6086C264.251 13.6634 264.34 13.696 264.432 13.7026C264.525 13.7092 264.617 13.6897 264.699 13.6461L268.228 11.7805L271.756 13.6461C271.852 13.6977 271.964 13.7148 272.071 13.6961C272.342 13.6492 272.523 13.3914 272.477 13.1195L271.802 9.16797L274.656 6.36954C274.734 6.29297 274.785 6.19297 274.801 6.0836C274.843 5.81016 274.653 5.55704 274.381 5.51641Z" fill="#FADB14"/>
<path d="M296.654 5.51641L292.709 4.93985L290.946 1.34454C290.898 1.2461 290.819 1.16641 290.721 1.11797C290.475 0.9961 290.177 1.09766 290.054 1.34454L288.291 4.93985L284.346 5.51641C284.237 5.53204 284.138 5.5836 284.062 5.66172C283.97 5.75686 283.919 5.88485 283.921 6.01757C283.923 6.15029 283.977 6.27689 284.071 6.36954L286.925 9.16797L286.251 13.1195C286.235 13.2115 286.245 13.306 286.28 13.3924C286.315 13.4789 286.373 13.5537 286.448 13.6086C286.523 13.6634 286.612 13.696 286.705 13.7026C286.797 13.7092 286.89 13.6897 286.972 13.6461L290.5 11.7805L294.028 13.6461C294.125 13.6977 294.237 13.7148 294.344 13.6961C294.614 13.6492 294.796 13.3914 294.749 13.1195L294.075 9.16797L296.929 6.36954C297.007 6.29297 297.058 6.19297 297.073 6.0836C297.115 5.81016 296.926 5.55704 296.654 5.51641Z" fill="#FADB14"/>
<path d="M318.927 5.51641L314.982 4.93985L313.219 1.34454C313.171 1.2461 313.091 1.16641 312.994 1.11797C312.748 0.9961 312.45 1.09766 312.327 1.34454L310.564 4.93985L306.619 5.51641C306.51 5.53204 306.411 5.5836 306.335 5.66172C306.243 5.75686 306.192 5.88485 306.194 6.01757C306.195 6.15029 306.25 6.27689 306.344 6.36954L309.198 9.16797L308.524 13.1195C308.508 13.2115 308.518 13.306 308.553 13.3924C308.588 13.4789 308.646 13.5537 308.721 13.6086C308.796 13.6634 308.885 13.696 308.978 13.7026C309.07 13.7092 309.163 13.6897 309.245 13.6461L312.773 11.7805L316.301 13.6461C316.398 13.6977 316.509 13.7148 316.617 13.6961C316.887 13.6492 317.069 13.3914 317.022 13.1195L316.348 9.16797L319.202 6.36954C319.28 6.29297 319.331 6.19297 319.346 6.0836C319.388 5.81016 319.199 5.55704 318.927 5.51641Z" fill="#FADB14"/>
<path d="M341.199 5.51641L337.255 4.93985L335.491 1.34454C335.443 1.2461 335.364 1.16641 335.266 1.11797C335.021 0.9961 334.722 1.09766 334.6 1.34454L332.836 4.93985L328.892 5.51641C328.783 5.53204 328.683 5.5836 328.607 5.66172C328.515 5.75686 328.465 5.88485 328.466 6.01757C328.468 6.15029 328.522 6.27689 328.617 6.36954L331.471 9.16797L330.796 13.1195C330.781 13.2115 330.791 13.306 330.826 13.3924C330.86 13.4789 330.919 13.5537 330.994 13.6086C331.069 13.6634 331.158 13.696 331.25 13.7026C331.343 13.7092 331.435 13.6897 331.517 13.6461L335.046 11.7805L338.574 13.6461C338.67 13.6977 338.782 13.7148 338.889 13.6961C339.159 13.6492 339.341 13.3914 339.295 13.1195L338.62 9.16797L341.474 6.36954C341.552 6.29297 341.603 6.19297 341.619 6.0836C341.661 5.81016 341.471 5.55704 341.199 5.51641Z" fill="#FADB14"/>
</svg>
